<svg xmlns="http://www.w3.org/2000/svg" width="512" height="512" viewBox="0 0 512 512">
  <defs>
    <linearGradient id="bg" x1="0%" y1="0%" x2="100%" y2="100%">
      <stop offset="0%" stop-color="#101607"/>
      <stop offset="100%" stop-color="#07111f"/>
    </linearGradient>
    <radialGradient id="halo" cx="50%" cy="36%" r="62%">
      <stop offset="0%" stop-color="#d9f99d" stop-opacity="0.78"/>
      <stop offset="100%" stop-color="#4f6e28" stop-opacity="0"/>
    </radialGradient>
  </defs>
  <rect x="24" y="24" width="464" height="464" rx="86" fill="url(#bg)"/>
  <rect x="40" y="40" width="432" height="432" rx="68" fill="none" stroke="#8ebf50" stroke-width="7"/>
  <circle cx="256" cy="222" r="165" fill="url(#halo)"/>
  <ellipse cx="256" cy="415" rx="118" ry="34" fill="#020617" opacity="0.38"/>
  <ellipse cx="256" cy="270" rx="124" ry="137" fill="#d2a16e" stroke="#4f2f17" stroke-width="9"/>
  <path d="M136 185H376L342 225H169Z" fill="#c99133" stroke="#4f2f17" stroke-width="9" stroke-linejoin="round"/>
  <path d="M188 132C224 95 293 95 329 132L350 185H166Z" fill="#f7c65c" stroke="#4f2f17" stroke-width="9" stroke-linejoin="round"/>
  <path d="M206 147H306" stroke="#fff7ad" stroke-width="7" stroke-linecap="round"/>
  <path d="M255 121C245 91 268 74 292 88C287 116 273 128 255 121Z" fill="#8ebf50" stroke="#4f6e28" stroke-width="7"/>
  <circle cx="216" cy="276" r="12" fill="#17220f"/>
  <circle cx="297" cy="276" r="12" fill="#17220f"/>
  <path d="M224 331C246 345 274 345 294 331" stroke="#4f2f17" stroke-width="10" stroke-linecap="round"/>
  <path d="M129 356C170 326 342 326 383 356" stroke="#8ebf50" stroke-width="13" stroke-linecap="round"/>
</svg>
