<svg xmlns="http://www.w3.org/2000/svg" width="160" height="160" viewBox="0 0 160 160">
  <defs>
    <linearGradient id="leaf" x1="10%" y1="0%" x2="90%" y2="100%">
      <stop offset="0%" stop-color="#bbf7d0"/>
      <stop offset="50%" stop-color="#22c55e"/>
      <stop offset="100%" stop-color="#15803d"/>
    </linearGradient>
    <linearGradient id="ring" x1="20%" y1="10%" x2="90%" y2="100%">
      <stop offset="0%" stop-color="#fff7ad"/>
      <stop offset="100%" stop-color="#ca8a04"/>
    </linearGradient>
  </defs>
  <g fill="none" stroke-linecap="round" stroke-linejoin="round">
    <circle cx="80" cy="84" r="50" fill="#102016" stroke="url(#ring)" stroke-width="7"/>
    <path d="M80 43C66 25 40 39 51 61C31 61 29 91 55 94C51 116 80 123 86 101C99 119 126 102 112 81C135 78 129 45 103 55C105 35 82 26 80 43Z" fill="url(#leaf)" stroke="#dcfce7" stroke-width="4"/>
    <path d="M80 63V113" stroke="#14532d" stroke-width="6"/>
    <path d="M58 78H104" stroke="#14532d" stroke-width="5"/>
    <path d="M82 48 86 58M59 84 69 82M101 82 91 80M83 98 91 108" stroke="#fef9c3" stroke-width="4"/>
  </g>
</svg>
